<svg xmlns="http://www.w3.org/2000/svg" version="1.1" xmlns:xlink="http://www.w3.org/1999/xlink" xmlns:svgjs="http://svgjs.dev/svgjs" width="1000" height="1012" viewBox="0 0 1000 1012"><g transform="matrix(1,0,0,1,0.8839474115992516,0.40971659919023296)"><svg viewBox="0 0 244 247" data-background-color="#ffffff" preserveAspectRatio="xMidYMid meet" height="1012" width="1000" xmlns="http://www.w3.org/2000/svg" xmlns:xlink="http://www.w3.org/1999/xlink"><g id="tight-bounds" transform="matrix(1,0,0,1,-0.21568316843021762,-0.09999999999999432)"><svg viewBox="0 0 244.43135999999998 247.2" height="247.2" width="244.43135999999998"><g><svg></svg></g><g><svg viewBox="0 0 244.43135999999998 247.2" height="247.2" width="244.43135999999998"><g transform="matrix(1,0,0,1,0,64.84943572700297)"><svg viewBox="0 0 244.43135999999998 117.50112854599406" height="117.50112854599406" width="244.43135999999998"><g><svg viewBox="0 0 244.43135999999998 117.50112854599406" height="117.50112854599406" width="244.43135999999998"><g><svg viewBox="0 0 244.43135999999998 117.50112854599406" height="117.50112854599406" width="244.43135999999998"><g><svg viewBox="0 0 244.43135999999998 117.50112854599406" height="117.50112854599406" width="244.43135999999998"><g id="textblocktransform"><svg viewBox="0 0 244.43135999999998 117.50112854599406" height="117.50112854599406" width="244.43135999999998" id="textblock"><g><svg viewBox="0 0 244.43135999999998 117.50112854599406" height="117.50112854599406" width="244.43135999999998"><g transform="matrix(1,0,0,1,0,0)"><svg width="244.43135999999998" viewBox="3.049999952316284 -40.5 84.23999786376953 40.5" height="117.50112854599406" data-palette-color="#111111"><path d="M10.45 0L3.05 0 3.05-40.5 12.75-40.5Q16.85-40.5 19.68-39.53 22.5-38.55 23.98-36.2 25.45-33.85 25.45-29.8L25.45-29.8Q25.45-27.35 25-25.4 24.55-23.45 23.48-22.08 22.4-20.7 20.5-19.95L20.5-19.95 26.15 0 18.75 0 13.85-18.55 10.45-18.55 10.45 0ZM10.45-35.45L10.45-23.2 12.75-23.2Q14.9-23.2 16.18-23.83 17.45-24.45 18-25.83 18.55-27.2 18.55-29.35L18.55-29.35Q18.55-32.4 17.43-33.93 16.3-35.45 13.15-35.45L13.15-35.45 10.45-35.45ZM48.2 0L31 0 31-40.5 38.4-40.5 38.4-5.1 48.2-5.1 48.2 0ZM59.25 0L51.84 0 51.84-40.5 61.55-40.5Q65.65-40.5 68.47-39.53 71.3-38.55 72.77-36.2 74.25-33.85 74.25-29.8L74.25-29.8Q74.25-27.35 73.8-25.4 73.34-23.45 72.27-22.08 71.2-20.7 69.3-19.95L69.3-19.95 74.95 0 67.55 0 62.65-18.55 59.25-18.55 59.25 0ZM59.25-35.45L59.25-23.2 61.55-23.2Q63.7-23.2 64.97-23.83 66.25-24.45 66.8-25.83 67.34-27.2 67.34-29.35L67.34-29.35Q67.34-32.4 66.22-33.93 65.09-35.45 61.95-35.45L61.95-35.45 59.25-35.45ZM87.29 0L79.99 0 79.99-40.5 87.29-40.5 87.29 0Z" opacity="1" transform="matrix(1,0,0,1,0,0)" fill="#111111" class="wordmark-text-0" data-fill-palette-color="primary" id="text-0"></path></svg></g></svg></g></svg></g></svg></g><g></g></svg></g></svg></g></svg></g><path d="M0 58.849L0 1 244.431 1 244.431 58.849 233.835 58.849 233.835 11.596 10.596 11.596 10.596 58.849 0 58.849M0 188.351L0 246.2 244.431 246.2 244.431 188.351 233.835 188.351 233.835 235.604 10.596 235.604 10.596 188.351 0 188.351" fill="#111111" stroke="transparent" data-fill-palette-color="primary"></path></svg></g><defs></defs></svg><rect width="244.43135999999998" height="247.2" fill="none" stroke="none" visibility="hidden"></rect></g></svg></g></svg>